# xmcd
#
# Track frame offsets: 
#        187
#        19732
#        39465
#        59212
#        78905
#
# Disc length: 1327 seconds
#
# Revision: 3
# Processed by: cddbd v1.5.2PL0 Copyright (c) Steve Scherf et al.
# Submitted via: ExactAudioCopyFreeDBPlugin 1.0
#
DISCID=3a052d05
DTITLE=Wreckx-N-Effect - KNOCK-N-Boots [CDM)
DYEAR=1993
DGENRE=R&B
TTITLE0=KNOCK-N-Boots (Chant Radio Mix)
TTITLE1=KNOCK-N-Boots (Bonus Dub)
TTITLE2=KNOCK-N-Boots (Radio Mix)
TTITLE3=KNOCK-N-Boots (Instrumental)
TTITLE4=Rump Shaker (Radio Remix)
EXTD=YEAR: 1993
EXTT0=
EXTT1=
EXTT2=
EXTT3=
EXTT4=
PLAYORDER=
